# xmcd
#
# Track frame offsets:
#	150
#	18683
#	35369
#	52527
#	65183
#	84827
#	102550
#	115240
#	130607
#	147427
#	162146
#	180475
#	193840
#	211185
#	224585
#	241382
#	256095
#
# Disc length: 3628 seconds
# Revision: 6
# Processed by: cddbd v1.5.2PL0 Copyright (c) Steve Scherf et al.
# Submitted via: dBpowerAMP V12.0
#
DISCID=ee0e2a11
DTITLE=Trisha Yearwood - Greatest Hits
DYEAR=2007
DGENRE=Country
TTITLE0=She's In Love With The Boy
TTITLE1=Like We Never Had A Broken Heart
TTITLE2=The Woman Before Me
TTITLE3=Wrong Side Of Memphis
TTITLE4=Walkaway Joe
TTITLE5=The Song Remembers When
TTITLE6=Xxx's And Ooo's (An American Girl)
TTITLE7=Thinkin' About You
TTITLE8=Believe Me Baby (I Lied)
TTITLE9=Everybody Knows
TTITLE10=How Do I Live
TTITLE11=Perfect Love
TTITLE12=There Goes My Baby
TTITLE13=Powerful Thing
TTITLE14=I Would've Loved You Anyway
TTITLE15=Just A Cup Of Coffee
TTITLE16=Nothin' To Lose
EXTD=
EXTT0=
EXTT1=
EXTT2=
EXTT3=
EXTT4=
EXTT5=
EXTT6=
EXTT7=
EXTT8=
EXTT9=
EXTT10=
EXTT11=
EXTT12=
EXTT13=
EXTT14=
EXTT15=
EXTT16=
PLAYORDER=
